<?xml version="1.0" standalone="no"?><!DOCTYPE svg PUBLIC "-//W3C//DTD SVG 1.1//EN" "http://www.w3.org/Graphics/SVG/1.1/DTD/svg11.dtd"><svg t="1611065839088" class="icon" viewBox="0 0 1024 1024" version="1.1" xmlns="http://www.w3.org/2000/svg" p-id="810" xmlns:xlink="http://www.w3.org/1999/xlink" width="200" height="200"><defs><style type="text/css"></style></defs><path d="M512 849.5C230.75 849.5 73.25 541.99999971 65.75000029 527.00000029c-3.75000029-11.25-3.75000029-22.5 0-33.75C114.49999971 403.25000029 181.99999971 324.50000029 268.25000029 260.74999971c15.00000029-15.00000029 37.50000029-11.25 52.49999971 7.50000058 11.25 15.00000029 11.25 41.24999971-7.49999971 52.49999971C242 373.24999971 185.75 437.00000029 140.75 512c33.75 60.00000029 168.75 262.50000029 371.25 262.50000029 71.25000029 0 142.49999971-26.25000029 198.74999971-71.25000029 15.00000029-11.25 41.24999971-7.49999971 52.50000058 7.49999971 11.25 15.00000029 7.49999971 41.24999971-7.50000058 52.50000058-67.5 56.25-153.74999971 86.24999971-243.74999971 86.24999971z m330.00000029-180c-7.49999971 0-18.74999971-3.75000029-22.5-7.49999971-15.00000029-15.00000029-18.74999971-37.50000029-3.75000029-52.50000058 26.25000029-29.99999971 48.75000029-60.00000029 67.5-93.74999942-33.75-60.00000029-168.75-262.50000029-371.25-262.50000029-22.5 0-48.75000029 3.75000029-71.25000029 7.49999971-18.74999971 0-37.50000029-11.25-45-29.99999971-3.75000029-22.5 7.49999971-41.24999971 30.00000058-45 26.25000029-7.49999971 56.25-11.25 86.24999971-11.25 281.25 0 438.75 307.50000029 446.24999971 322.49999971 3.75000029 11.25 3.75000029 22.5 0 33.75-22.5 45-52.49999971 86.24999971-86.24999971 127.50000029-7.49999971 7.49999971-18.74999971 11.25-29.99999971 11.25z m-333.75000058-3.75000029c-37.50000029 0-74.99999971-15.00000029-101.25-41.24999971-29.99999971-26.25000029-45-63.74999971-48.74999942-105.00000029 0-41.24999971 11.25-78.75 41.24999971-108.74999971l7.49999971-7.49999971c15.00000029-15.00000029 37.50000029-15.00000029 52.50000058 0 15.00000029 15.00000029 15.00000029 37.50000029 0 52.49999971l-3.75000029 3.75000029c-15.00000029 15.00000029-22.5 33.75-18.74999971 52.49999971 0 18.74999971 7.49999971 37.50000029 22.5 52.49999971 15.00000029 15.00000029 33.75 22.5 52.49999971 18.75000058 18.74999971 0 37.50000029-7.49999971 52.49999971-22.5 15.00000029-15.00000029 37.50000029-15.00000029 52.50000058 0 15.00000029 15.00000029 15.00000029 37.50000029 0 52.49999971-26.25000029 29.99999971-63.74999971 45-105.00000029 48.75000029 0 3.75000029 0 3.75000029-3.75000029 3.74999942z" p-id="811"></path><path d="M924.49999971 962c-11.25 0-18.74999971-3.75000029-26.24999942-11.25l-825.00000029-825.00000029C58.24999971 110.75000029 58.24999971 88.25000029 73.25 73.25s37.50000029-15.00000029 52.49999971 0l825.00000029 825.00000029c15.00000029 15.00000029 15.00000029 37.50000029 0 52.49999971-7.49999971 7.49999971-15.00000029 11.25-26.25000029 11.25z" p-id="812"></path></svg>