<?xml version="1.0" standalone="no"?><!DOCTYPE svg PUBLIC "-//W3C//DTD SVG 1.1//EN" "http://www.w3.org/Graphics/SVG/1.1/DTD/svg11.dtd"><svg t="1611065301629" class="icon" viewBox="0 0 1024 1024" version="1.1" xmlns="http://www.w3.org/2000/svg" p-id="848" xmlns:xlink="http://www.w3.org/1999/xlink" width="200" height="200"><defs><style type="text/css"></style></defs><path d="M891.521 169.794H132.468c-36.144 0-49.696 9.041-49.696 49.696v528.625c0 40.657 13.558 49.696 49.696 49.696H887c36.144 0 49.696-9.04 49.696-49.696V219.49c4.518-40.657-9.04-49.696-45.187-49.696z m-67.77 49.704C710.8 323.417 539.101 499.625 521.033 513.177c-4.518 4.517-9.042 4.517-18.072 0-22.586-18.072-207.836-194.281-311.751-293.68h632.536zM132.48 748.126V237.578l271.087 257.531c27.108 27.109 45.187 40.657 58.732 54.218 18.071 9.041 31.63 13.557 49.696 13.557s31.63-4.517 49.696-13.557v-4.517c27.108-18.072 112.951-108.432 329.82-307.232v510.548H132.456z m0 0z" p-id="849"></path></svg>