<?xml version="1.0" standalone="no"?><!DOCTYPE svg PUBLIC "-//W3C//DTD SVG 1.1//EN" "http://www.w3.org/Graphics/SVG/1.1/DTD/svg11.dtd"><svg t="1611064331386" class="icon" viewBox="0 0 1024 1024" version="1.1" xmlns="http://www.w3.org/2000/svg" p-id="719" xmlns:xlink="http://www.w3.org/1999/xlink" width="200" height="200"><defs><style type="text/css"></style></defs><path d="M731.28974609 64.55410156H274.80253906c-28.48095703 0-51.79570313 22.90429688-51.79570312 51.440625v793.03886719c0 28.26298828 23.04228516 51.16728516 51.79570312 51.16728516h456.48720703c28.42822266 0 51.49599609-22.90429688 51.4959961-51.16728516V115.72138672c0-28.26210937-23.06777344-51.16728516-51.4959961-51.16728516M460.03818359 115.72138672h86.26201172c5.95898438 0 10.82460938 4.865625 10.82460938 10.76923828 0 5.93173828-4.86474609 10.76923828-10.82460938 10.76923828H460.0390625c-5.95898438 0-10.85009766-4.8375-10.85009766-10.76923828-0.00087891-5.90361328 4.89199219-10.76923828 10.85009766-10.76923828m42.85810547 808.12792969c-26.04814453 0-47.45039063-21.04628906-47.45039063-47.17705078 0-25.80205078 21.12890625-47.12167969 47.45039063-47.12167969 26.29423828 0 47.44951172 20.99179687 47.44951172 47.12167969 0 26.13076172-21.15439453 47.17705078-47.44951172 47.17705078m232.65966797-155.96191407c0 14.26816406-11.59013672 25.58320313-25.69394531 25.58320313H296.23203125c-14.37626953 0-25.77480469-11.58925781-25.77480469-25.58320313V205.70117187c0-14.26728516 11.671875-25.61044922 25.77480469-25.61044921H709.53417969c14.43251953 0 25.80292969 11.58837891 25.80292968 25.61044922v562.18535156h0.21884766z m0 0" p-id="720"></path></svg>